<svg width="1000" height="1000" viewBox="0 0 1000 1000" fill="none" xmlns="http://www.w3.org/2000/svg">
<rect width="1000" height="1000" rx="175" fill="white"/>
<g clip-path="url(#clip0)">
<path d="M917.889 307.774C928.151 317.44 926.761 334.097 915.036 341.927C892.419 357.032 858.144 376.624 816.185 373.12C814.129 372.949 810.729 373.359 808.706 373.08C746.074 364.463 700.536 306.547 700.536 306.547C700.536 306.547 745.014 266.114 800.19 259.686C808.072 258.768 816.172 260.144 824.393 260.831C866.35 264.335 898.091 289.126 917.889 307.774V307.774Z" fill="#BBF49B"/>
<path d="M921.091 307.774C901.292 289.126 866.35 262.734 824.391 259.228C815.573 258.492 806.901 258.829 798.482 259.922C837.709 265.32 870.237 290.042 889.063 307.774C899.326 317.44 897.936 334.097 886.211 341.927C868.345 353.858 840.356 368.976 808.706 373.08C810.729 373.359 812.769 373.585 814.825 373.758C856.784 377.262 895.622 357.032 918.239 341.928C929.964 334.097 931.355 317.44 921.091 307.774Z" fill="#9BE69D"/>
<path d="M719.767 287.6L719.76 287.595C741.26 249.578 748.147 217.896 729.199 191.614C720.851 181.187 705.631 179.502 695.203 187.852L695.202 187.854C684.776 196.204 683.093 211.424 691.442 221.85C700.355 232.966 691.395 248.963 680.348 264.031L639.722 316.745L684.563 346.105L710.419 303.134C713.72 297.931 716.785 292.843 719.61 287.859L719.767 287.6Z" fill="#B67F5F"/>
<path d="M781.129 487.865C781.129 336.584 664.242 238.129 512.962 238.129C504.625 238.129 496.436 236.92 488.403 237.687C350.68 250.83 258.644 373.993 244.875 516.272C236.133 606.606 148.345 681.486 148.345 681.486C106.395 745.758 150.073 831.287 226.735 834.941C353.167 840.969 513.985 844.095 648.41 745.728C716.306 696.044 781.129 596.891 781.129 487.865Z" fill="#8880FF"/>
<path d="M512.962 236.527C505.718 236.527 498.59 236.828 491.576 237.41C631.431 247.48 740.365 344.739 740.365 487.864C740.365 596.891 675.542 696.043 607.646 745.729C509.746 817.368 395.302 835.17 291.497 837.229C406.424 839.281 540.738 828.034 653.214 745.729C721.11 696.045 785.933 596.891 785.933 487.864C785.933 336.586 664.242 236.527 512.962 236.527Z" fill="#665DFE"/>
<path d="M385.276 823.008C328.658 827.199 274.049 825.172 227.307 822.943C195.67 821.436 168.177 803.698 153.766 775.497C139.591 747.761 141.024 715.705 157.531 689.413C169.473 678.872 248.237 606.239 256.83 517.428C266.184 420.761 312.967 335.121 381.971 288.338C387.462 284.615 388.896 277.147 385.174 271.656C381.451 266.164 373.981 264.729 368.491 268.454C293.637 319.202 242.955 411.412 232.92 515.113C224.761 599.431 141.386 671.632 140.55 672.346C139.677 673.091 138.915 673.957 138.286 674.92C116.198 708.762 113.988 750.449 132.375 786.427C150.755 822.392 185.816 845.013 226.162 846.937C253.411 848.236 283.303 849.468 314.796 849.468C338.142 849.468 362.372 848.792 387.048 846.965C393.663 846.475 398.628 840.716 398.14 834.1C397.651 827.486 391.903 822.499 385.276 823.008Z" fill="#665DFE"/>
<path d="M929.321 299.026C919.866 290.121 909.892 282.121 899.675 275.252C894.169 271.55 886.708 273.012 883.005 278.519C879.304 284.025 880.766 291.488 886.271 295.189C895.402 301.329 904.345 308.504 912.85 316.514C915.882 319.37 916.087 322.768 915.938 324.541C915.791 326.312 915.025 329.631 911.561 331.943C892.748 344.505 855.29 365.082 815.823 361.788C794.058 359.97 771.771 351.097 749.556 335.445C741.715 324.717 732.969 314.581 723.357 305.118C723.767 304.459 724.172 303.796 724.579 303.133C744.939 289.03 782.913 267.81 823.39 271.198C829.551 271.712 835.853 272.815 842.119 274.474C848.532 276.173 855.106 272.351 856.805 265.938C858.504 259.526 854.681 252.95 848.269 251.253C840.644 249.233 832.946 247.89 825.387 247.257C795.424 244.752 767.167 253.279 744.542 263.932C754.874 236.875 756.815 209.384 738.94 184.588C738.821 184.423 738.699 184.263 738.573 184.104C732.529 176.558 723.908 171.815 714.299 170.753C704.689 169.691 695.24 172.433 687.692 178.477C680.146 184.521 675.404 193.142 674.341 202.752C673.278 212.363 676.021 221.811 682.071 229.365C686.562 234.964 675.135 251.165 666.345 262.647C621.713 237.818 568.941 224.516 512.962 224.516C479.087 224.516 446.51 230.736 416.137 243.004C409.985 245.487 407.013 252.487 409.499 258.639C411.982 264.788 418.982 267.762 425.134 265.278C452.636 254.171 482.186 248.54 512.963 248.54C584.682 248.54 650.463 271.942 698.192 314.437C710.456 325.356 721.282 337.25 730.641 350.012C731.107 350.858 731.666 351.662 732.342 352.387C759.674 390.722 773.924 436.74 773.924 487.864C773.924 594.695 709.735 689.485 646.123 736.035C587.719 778.774 518.758 805.45 435.297 817.59C428.732 818.545 424.186 824.64 425.14 831.206C426.01 837.184 431.142 841.489 437.012 841.489C437.587 841.489 438.17 841.448 438.756 841.363C526.193 828.644 598.665 800.533 660.31 755.423C728.82 705.29 797.948 603.116 797.948 487.866C797.948 447.874 789.556 409.952 773.592 375.976C786.99 381.342 800.433 384.608 813.828 385.727C817.463 386.03 821.063 386.175 824.641 386.175C864.764 386.175 900.886 367.96 924.906 351.921C933.559 346.143 939.017 336.893 939.882 326.541C940.745 316.188 936.896 306.159 929.321 299.026ZM700.816 214.34C698.783 211.802 697.86 208.625 698.219 205.393C698.576 202.161 700.171 199.261 702.709 197.227C705.248 195.195 708.425 194.271 711.659 194.629C714.801 194.977 717.629 196.495 719.653 198.913C734.308 219.531 730.285 246.476 705.948 287.472C705.618 287.886 705.317 288.316 705.049 288.764C699.212 284.032 693.158 279.546 686.909 275.308C701.177 256.499 715.92 233.172 700.816 214.34Z" fill="#665DFE"/>
</g>
<defs>
<clipPath id="clip0">
<rect width="820" height="820" fill="white" transform="translate(120 100)"/>
</clipPath>
</defs>
</svg>
